# xmcd CD database file
#
# Track frame offsets:
#	150
#	18076
#	33453
#	46178
#	61870
#	70976
#	94407
#	110889
#	133873
#	139362
#	162871
#	188348
#
# Disc length: 2959 seconds
#
# Revision: 0
# Processed by: cddbd v1.5.2PL0 Copyright (c) Steve Scherf et al.
# Submitted via: CDex 1.70beta2
#
DISCID=a60b8d0c
DTITLE=Schneeweiss und Rosenrot - Salt Crusted Dreams
DYEAR=2009
DGENRE=Jazz
TTITLE0=01 Lillies in Fall
TTITLE1=02 Boogie no Woogie
TTITLE2=03 Hibernation
TTITLE3=04 Rise Up
TTITLE4=05 A Fish Decides to Go On Shore
TTITLE5=06 Märchenprinz
TTITLE6=07 Cykle
TTITLE7=08 Early Winternight
TTITLE8=09 This Cannot Go On to Long
TTITLE9=10 Fearless Frogs
TTITLE10=11 Salt Crusted Dreams
TTITLE11=12 Olive
EXTD=YEAR: 2009
EXTT0=
EXTT1=
EXTT2=
EXTT3=
EXTT4=
EXTT5=
EXTT6=
EXTT7=
EXTT8=
EXTT9=
EXTT10=
EXTT11=
PLAYORDER=
